<?xml version="1.0" standalone="no"?>
<!DOCTYPE svg PUBLIC "-//W3C//DTD SVG 20010904//EN"
 "http://www.w3.org/TR/2001/REC-SVG-20010904/DTD/svg10.dtd">
<svg version="1.0" xmlns="http://www.w3.org/2000/svg"
 width="421.000000pt" height="421.000000pt" viewBox="0 0 421.000000 421.000000"
 preserveAspectRatio="xMidYMid meet">

<g transform="translate(0.000000,421.000000) scale(0.100000,-0.100000)"
fill="#000000" stroke="none">
<path d="M1 3491 l1 -720 21 -3 c14 -2 21 -11 22 -28 2 -14 11 -62 21 -108 14
-64 22 -81 34 -77 15 4 50 -51 50 -81 0 -8 5 -12 11 -8 7 4 8 20 4 41 -6 33
-5 34 17 27 13 -4 28 -14 35 -23 10 -15 12 -14 19 2 3 10 2 29 -5 43 -15 34
-14 54 4 54 8 0 15 -9 15 -20 0 -11 5 -20 10 -20 6 0 10 7 10 16 0 13 7 15 30
11 17 -4 30 -4 30 -2 0 2 -14 39 -31 82 -29 74 -31 88 -36 251 -4 104 -2 172
3 172 5 0 11 -21 12 -47 1 -26 6 -61 12 -77 5 -17 12 -66 14 -108 3 -55 10
-85 24 -105 10 -15 17 -34 15 -41 -3 -7 5 -28 16 -48 12 -19 21 -51 21 -71 0
-41 12 -38 14 3 1 33 22 43 31 15 9 -30 23 -26 27 7 2 22 8 27 30 27 38 1 43
9 29 55 -15 50 -7 87 15 69 8 -6 14 -27 14 -45 0 -47 20 -43 21 4 1 21 3 28 6
17 3 -11 9 -24 14 -30 5 -5 9 -20 9 -33 0 -14 5 -22 13 -19 6 2 12 15 12 28 0
38 38 33 45 -6 5 -27 6 -28 12 -8 3 12 -1 64 -9 115 -24 153 -26 178 -14 178
6 0 11 -12 11 -27 0 -47 12 -103 22 -103 8 0 4 72 -8 129 -4 18 -1 22 10 18 9
-4 16 2 20 17 3 12 17 28 30 34 45 20 176 62 195 62 10 0 23 11 29 24 8 18 27
29 69 41 112 33 121 29 159 -79 10 -27 19 -45 21 -39 2 6 -5 34 -17 62 -20 53
-26 91 -12 91 10 0 69 -107 103 -185 9 -22 13 -26 16 -13 2 9 -16 59 -41 110
-43 88 -46 118 -13 105 15 -5 43 -72 74 -171 10 -33 24 -62 32 -64 23 -8 6 62
-38 155 -42 88 -42 90 15 103 38 9 54 -7 54 -52 0 -13 6 -30 12 -36 10 -10 10
-17 0 -32 -20 -32 -15 -60 14 -70 14 -6 29 -10 33 -10 16 0 20 61 7 93 -7 17
-19 48 -25 67 -7 19 -13 37 -14 40 -1 3 2 7 7 10 5 3 18 -24 30 -60 12 -36 29
-78 39 -95 21 -38 82 -164 90 -187 4 -10 13 -18 21 -18 18 0 13 17 -27 97 -13
26 -22 53 -20 59 2 6 -12 49 -32 95 -35 84 -42 109 -27 109 4 0 23 -39 41 -87
56 -145 64 -163 74 -163 5 0 6 8 2 18 -22 52 -34 106 -26 119 6 11 12 4 26
-28 10 -24 20 -38 22 -31 10 28 48 11 75 -34 31 -50 48 -50 48 1 0 43 18 55
25 18 8 -37 39 -96 55 -101 16 -6 6 39 -27 121 -37 93 -54 160 -43 171 6 6 10
18 10 28 0 29 16 21 30 -14 33 -83 80 -178 90 -178 15 0 14 2 -30 94 -52 108
-52 116 4 116 l44 0 32 -67 c17 -37 38 -89 47 -115 8 -27 19 -51 24 -53 19
-12 16 16 -10 91 -15 43 -31 91 -35 107 l-6 27 90 0 c85 0 92 -2 115 -26 14
-15 39 -57 57 -95 31 -67 48 -85 48 -54 0 29 17 14 40 -35 23 -49 40 -64 40
-36 0 17 -46 152 -60 178 -12 21 -12 28 -2 28 8 0 23 -26 42 -72 7 -16 18 -28
26 -28 18 0 18 8 -2 45 -17 30 -26 85 -15 85 8 0 21 -20 97 -150 75 -127 97
-153 124 -145 14 4 35 -4 68 -29 43 -31 57 -36 147 -45 55 -6 117 -10 137 -10
36 1 37 2 44 46 l6 44 23 -21 c13 -12 28 -40 34 -63 12 -50 34 -83 49 -73 7 4
5 20 -8 49 -11 23 -20 61 -20 84 0 23 -8 58 -17 78 -18 37 -11 58 11 34 7 -8
25 -45 40 -84 15 -38 38 -86 51 -105 17 -25 27 -60 34 -120 6 -47 15 -119 21
-160 11 -72 10 -174 -3 -186 -3 -3 -34 3 -69 15 -35 11 -84 23 -111 26 -26 4
-72 19 -101 34 -75 40 -102 47 -266 77 -183 32 -454 43 -501 20 -21 -11 -38
-12 -62 -5 -49 14 -134 11 -140 -5 -3 -8 -29 -16 -64 -20 -32 -4 -75 -12 -96
-18 -30 -9 -43 -9 -58 0 -24 15 -29 15 -29 -2 0 -27 -19 -27 -60 0 -31 21 -44
24 -49 15 -6 -9 -14 -7 -32 8 -20 17 -22 22 -9 30 18 12 119 29 222 37 54 4
78 10 78 19 0 7 7 18 15 25 33 27 15 32 -87 25 -57 -4 -160 -15 -231 -26 -70
-10 -134 -16 -142 -13 -9 4 -19 -3 -25 -18 -6 -12 -27 -31 -46 -41 l-35 -17
-10 30 c-14 38 -26 38 -47 -1 -14 -25 -22 -29 -45 -26 -24 3 -28 1 -24 -15 4
-14 -2 -22 -21 -31 -15 -6 -41 -22 -58 -34 -17 -13 -39 -23 -48 -23 -17 0 -61
27 -103 64 -13 11 -26 16 -30 12 -4 -4 16 -30 45 -57 28 -28 52 -52 52 -54 0
-2 -24 -9 -54 -16 -91 -20 -110 -47 -23 -30 56 10 63 -4 9 -18 -44 -12 -79
-35 -66 -44 6 -3 24 1 42 10 46 22 50 10 12 -34 -33 -37 -69 -106 -70 -132 0
-11 3 -11 17 0 15 12 16 12 9 -6 -5 -11 -17 -49 -27 -84 -10 -35 -21 -67 -25
-70 -3 -3 -42 -5 -85 -5 -55 1 -79 -2 -76 -9 5 -16 42 -25 107 -26 54 -1 91
-13 73 -24 -4 -3 -57 -5 -116 -6 -117 0 -141 -6 -112 -28 17 -11 12 -13 -38
-13 -55 0 -74 -11 -41 -24 49 -19 289 1 356 29 31 13 31 -21 0 -112 -37 -109
-47 -177 -28 -192 11 -10 15 -3 21 39 8 56 20 70 43 47 10 -11 15 -32 13 -70
-1 -38 3 -58 14 -67 8 -7 15 -18 15 -24 1 -21 37 -60 44 -47 8 13 51 -65 61
-111 7 -28 22 -45 32 -35 2 3 -4 54 -15 114 -29 154 -38 278 -21 309 12 24 13
24 34 -28 12 -29 29 -81 38 -114 16 -58 55 -143 80 -173 21 -25 116 -80 159
-91 24 -7 57 -20 73 -30 29 -17 35 -17 135 -1 58 10 112 20 120 24 8 3 35 8
60 10 66 7 225 59 252 84 13 11 48 33 78 48 88 44 134 82 167 138 17 29 49 82
71 119 21 37 42 85 46 107 3 22 15 49 26 59 29 27 50 133 50 252 0 80 -4 111
-16 128 -9 13 -13 30 -10 38 7 19 72 14 231 -17 147 -29 181 -42 301 -119 60
-39 116 -70 125 -70 18 0 49 -30 49 -47 0 -17 -53 -125 -90 -185 -19 -29 -61
-79 -94 -112 -34 -32 -53 -53 -43 -46 9 7 20 10 24 6 10 -9 -27 -34 -68 -46
-36 -10 -233 -149 -225 -158 3 -2 30 10 61 27 30 17 55 30 55 28 0 -2 -17 -22
-37 -43 -43 -45 -142 -88 -281 -123 -46 -11 -139 -41 -205 -65 -67 -24 -160
-52 -207 -61 -156 -31 -205 -42 -233 -54 -16 -6 -41 -11 -56 -11 -16 0 -48 -7
-72 -16 -27 -9 -87 -16 -154 -18 -105 -3 -155 -15 -155 -37 0 -6 48 -7 134 -3
93 5 135 4 140 -4 4 -7 -26 -27 -79 -52 -50 -24 -85 -47 -85 -55 0 -17 16 -20
25 -5 11 18 23 10 18 -11 -5 -18 -3 -20 13 -11 11 6 28 20 38 31 11 12 26 21
35 21 11 0 9 -4 -7 -16 -23 -16 -29 -34 -12 -34 22 0 99 56 104 76 4 14 16 24
38 28 22 4 29 9 21 17 -7 7 -23 5 -52 -7 -48 -19 -62 -13 -37 15 12 13 37 21
79 26 34 4 105 17 157 30 52 12 124 28 160 34 145 27 387 82 415 95 37 18 75
29 75 23 0 -11 -94 -57 -117 -57 -13 0 -26 -7 -30 -15 -12 -34 -131 -77 -271
-100 -53 -8 -111 -18 -127 -20 -17 -3 -38 -14 -48 -25 -20 -24 -37 -26 -37 -5
0 19 -9 19 -32 -1 -10 -10 -41 -21 -70 -25 -30 -5 -60 -17 -72 -28 -24 -25
-13 -40 15 -22 30 18 35 6 15 -35 -9 -20 -14 -39 -11 -42 3 -3 6 -3 8 -1 2 2
15 23 31 47 22 35 30 41 41 32 11 -9 17 -6 31 15 11 16 20 23 26 17 6 -6 3
-20 -7 -36 -10 -14 -13 -26 -7 -26 6 0 19 14 29 30 9 17 25 30 34 30 9 0 22 7
29 15 7 8 16 15 21 15 16 0 10 -21 -16 -54 -28 -36 -33 -55 -10 -36 8 6 18 9
23 6 5 -3 28 17 51 44 35 41 48 50 75 50 26 0 35 6 46 27 8 17 14 23 17 15 3
-7 -1 -21 -9 -30 -18 -21 -60 -133 -53 -140 8 -8 31 25 64 88 16 30 37 62 47
71 26 22 71 32 76 17 3 -9 20 -9 74 1 167 33 172 33 241 -16 36 -27 43 -28 43
-9 0 8 -16 24 -35 36 -20 12 -34 27 -32 34 8 22 83 10 136 -22 57 -36 68 -24
19 20 -33 29 -33 29 -7 24 17 -4 43 3 73 19 51 27 85 32 104 13 18 -18 25 -3
10 21 -11 17 -10 23 3 37 15 14 20 14 63 -6 25 -12 49 -26 52 -31 8 -14 24
-10 24 6 0 8 -23 26 -50 40 -59 30 -71 62 -17 50 17 -5 55 -9 82 -9 44 -1 50
-3 50 -23 1 -33 11 -37 34 -14 11 11 16 23 12 26 -15 8 -10 73 5 86 12 10 20
8 42 -8 32 -24 38 -47 22 -78 -9 -17 -9 -28 -1 -44 9 -15 9 -26 1 -42 -7 -12
-9 -37 -5 -60 4 -25 3 -45 -5 -54 -6 -8 -9 -19 -5 -25 9 -14 -23 -235 -40
-275 -14 -33 -57 -267 -50 -273 2 -2 9 16 15 40 7 23 16 52 20 63 4 11 17 61
28 110 12 50 29 115 38 145 10 30 18 73 19 95 1 22 5 62 10 89 6 37 10 45 17
32 5 -9 6 -21 2 -27 -3 -6 -8 -47 -11 -92 -2 -44 -8 -88 -13 -97 -5 -9 -5 -42
-1 -74 4 -32 4 -101 0 -154 -4 -54 -10 -239 -13 -413 -3 -174 -9 -324 -12
-333 -5 -14 6 -16 95 -16 l101 0 0 41 c0 22 5 50 11 61 6 12 13 66 15 122 4
122 22 198 23 100 1 -33 4 -64 8 -68 4 -4 8 -20 9 -36 1 -16 10 -72 20 -124
l18 -96 338 0 338 0 0 2105 0 2105 -1195 0 c-657 0 -1195 -2 -1195 -4 0 -3 10
-26 21 -53 18 -40 22 -45 29 -28 6 17 9 14 24 -20 10 -22 24 -51 31 -65 7 -14
16 -39 19 -57 4 -17 16 -48 26 -68 11 -21 22 -57 26 -81 3 -24 10 -44 15 -44
5 0 9 -6 9 -13 0 -8 10 -19 23 -26 14 -8 36 -45 61 -104 22 -51 45 -103 53
-115 8 -13 12 -27 8 -30 -15 -15 -41 20 -67 93 -27 77 -43 104 -52 94 -3 -3 6
-41 19 -84 25 -80 26 -120 3 -97 -7 7 -40 12 -74 12 -80 0 -110 11 -118 46 -4
14 -25 68 -47 119 -21 51 -42 108 -45 126 -4 19 -15 61 -25 93 -11 33 -19 78
-19 100 0 23 -5 78 -11 123 l-12 82 -233 1 -233 0 -4 -47 -3 -48 -2 48 -2 47
-112 0 -113 0 2 -52 c1 -35 7 -54 18 -60 8 -5 13 -14 9 -19 -3 -5 -1 -16 6
-23 6 -8 8 -25 5 -38 -4 -16 1 -32 14 -49 20 -26 37 -90 32 -121 -1 -10 2 -18
7 -18 5 0 12 -23 16 -50 5 -40 12 -53 28 -59 17 -6 22 -17 24 -48 2 -38 44
-174 66 -217 13 -24 2 -34 -47 -42 -22 -3 -43 -8 -47 -10 -10 -6 -35 34 -43
69 -7 27 -25 38 -25 15 0 -7 -3 -23 -6 -35 -5 -18 -1 -25 20 -33 29 -11 35
-22 8 -18 -13 2 -17 -4 -16 -29 2 -25 -2 -33 -15 -33 -9 0 -47 -11 -85 -25
-45 -16 -74 -21 -81 -15 -7 6 -17 3 -28 -10 -9 -11 -29 -20 -46 -20 -15 0 -39
-8 -52 -18 -28 -22 -90 -45 -98 -36 -6 6 -8 42 -10 282 -1 105 -4 152 -12 152
-13 0 -3 178 11 195 11 13 40 168 40 214 0 20 -5 42 -12 49 -8 8 -8 12 -1 12
27 0 36 -30 28 -98 -5 -37 -10 -92 -11 -122 -2 -30 -3 -58 -3 -62 -1 -5 -8 -8
-17 -8 -14 0 -15 -2 -3 -17 11 -13 11 -17 1 -20 -15 -6 -16 -45 -1 -60 16 -16
49 -4 54 21 11 48 23 215 20 271 -2 33 0 62 4 65 4 3 11 31 15 63 6 52 4 57
-13 57 -11 0 -22 -8 -24 -17 -4 -17 -5 -17 -6 0 -1 15 -15 17 -151 17 l-150 0
0 -47 c0 -27 -5 -55 -10 -63 -8 -10 -9 4 -4 48 4 41 3 62 -4 62 -6 0 -13 -6
-15 -12 -4 -10 -6 -10 -6 0 -1 9 -48 12 -201 12 l-201 0 2 -719z m1937 649 c6
-16 7 -30 3 -30 -8 0 -31 44 -31 61 0 19 18 -1 28 -31z m-665 -115 l6 -70 -14
50 c-16 57 -20 114 -6 100 5 -6 11 -41 14 -80z m417 -18 c12 -49 29 -105 38
-125 15 -35 42 -124 61 -202 5 -19 18 -61 30 -92 12 -32 21 -71 21 -88 0 -31
-14 -37 -72 -32 -10 1 -18 -5 -18 -13 0 -25 -17 -17 -28 13 -53 143 -78 324
-49 360 7 9 7 16 -1 24 -7 7 -12 21 -12 33 0 12 -7 30 -15 41 -8 10 -14 33
-14 49 l0 30 15 -34 c20 -47 23 -37 12 36 -9 53 -5 104 6 92 2 -2 14 -44 26
-92z m-1260 43 c0 -11 -4 -20 -10 -20 -5 0 -10 9 -10 20 0 11 5 20 10 20 6 0
10 -9 10 -20z m1584 -45 c3 -8 1 -15 -3 -15 -5 0 -11 7 -15 15 -3 8 -1 15 3
15 5 0 11 -7 15 -15z m-1635 -2 c0 -5 -4 -17 -9 -28 -8 -18 -9 -17 -9 8 -1 15
4 27 9 27 6 0 10 -3 9 -7z m741 -14 c0 -5 -4 -9 -10 -9 -5 0 -10 7 -10 16 0 8
5 12 10 9 6 -3 10 -10 10 -16z m-707 -9 c-3 -12 -8 -19 -11 -16 -5 6 5 36 12
36 2 0 2 -9 -1 -20z m837 10 c0 -5 -4 -10 -10 -10 -5 0 -10 5 -10 10 0 6 5 10
10 10 6 0 10 -4 10 -10z m-61 -92 c1 -5 -3 -8 -9 -8 -5 0 -10 12 -9 28 0 24 1
25 9 7 5 -11 9 -23 9 -27z m101 26 c0 -8 -4 -12 -10 -9 -5 3 -10 10 -10 16 0
5 5 9 10 9 6 0 10 -7 10 -16z m340 -16 c0 -16 -3 -19 -11 -11 -6 6 -8 16 -5
22 11 17 16 13 16 -11z m-1540 -3 c0 -8 -4 -15 -10 -15 -5 0 -7 7 -4 15 4 8 8
15 10 15 2 0 4 -7 4 -15z m1960 1 c0 -8 3 -21 6 -30 9 -25 -23 -20 -37 5 -9
17 -8 23 2 30 20 13 29 11 29 -5z m-777 -43 c7 -27 11 -52 8 -58 -3 -5 -8 1
-9 15 -2 14 -8 27 -12 30 -14 8 -23 60 -12 60 6 0 17 -21 25 -47z m29 7 c3
-16 1 -30 -4 -30 -4 0 -8 14 -8 30 0 17 2 30 4 30 2 0 6 -13 8 -30z m937 -145
c45 -88 81 -165 81 -171 0 -6 7 -17 15 -24 15 -13 21 -50 8 -50 -10 1 -203
391 -203 410 0 27 19 -5 99 -165z m-1829 105 c0 -22 -4 -40 -10 -40 -11 0 -14
63 -3 73 11 12 13 8 13 -33z m969 -13 c0 -21 -1 -21 -9 -2 -12 28 -12 37 0 30
6 -3 10 -16 9 -28z m-1312 -39 c-2 -13 -4 -5 -4 17 -1 22 1 32 4 23 2 -10 2
-28 0 -40z m2023 13 c0 -10 11 -33 25 -52 27 -37 83 -149 95 -189 5 -14 11
-34 16 -45 7 -20 7 -20 -14 -1 -12 11 -22 23 -22 29 0 5 -27 65 -60 133 -57
117 -72 163 -50 149 6 -3 10 -14 10 -24z m-1350 0 c0 -6 -4 -13 -10 -16 -5 -3
-10 1 -10 9 0 9 5 16 10 16 6 0 10 -4 10 -9z m470 -36 c0 -5 -5 -3 -10 5 -5 8
-10 20 -10 25 0 6 5 3 10 -5 5 -8 10 -19 10 -25z m177 13 c-3 -8 -6 -5 -6 6
-1 11 2 17 5 13 3 -3 4 -12 1 -19z m-117 -40 c0 -5 -4 -8 -10 -8 -5 0 -10 10
-10 23 0 18 2 19 10 7 5 -8 10 -18 10 -22z m904 0 c19 -36 19 -38 7 -38 -5 0
-11 8 -14 18 -2 9 -8 25 -12 35 -12 30 3 19 19 -15z m-850 6 c14 -35 6 -47
-14 -21 -24 30 -25 37 -6 37 8 0 17 -7 20 -16z m83 -96 c-3 -8 -6 -5 -6 6 -1
11 2 17 5 13 3 -3 4 -12 1 -19z m23 -110 c0 -49 -5 -47 -14 5 -4 23 -3 37 4
37 5 0 10 -19 10 -42z m-1150 -29 c0 -33 -4 -58 -8 -55 -7 4 -9 101 -3 114 7
14 11 -9 11 -59z m1047 39 c-3 -8 -6 -5 -6 6 -1 11 2 17 5 13 3 -3 4 -12 1
-19z m633 -48 c0 -12 -45 -24 -59 -15 -22 13 -10 25 24 25 19 0 35 -4 35 -10z
m-580 -98 c0 -15 -2 -15 -10 -2 -13 20 -13 33 0 25 6 -3 10 -14 10 -23z m1514
2 c3 -8 2 -12 -4 -9 -6 3 -10 10 -10 16 0 14 7 11 14 -7z m-2594 -24 c0 -10
-4 -21 -9 -24 -10 -7 -23 33 -15 46 8 13 24 -1 24 -22z m960 21 c0 -11 -39
-21 -45 -11 -2 4 -2 10 2 14 10 9 43 7 43 -3z m-75 -22 c-8 -12 -35 -12 -35 0
0 11 22 20 33 14 4 -2 5 -9 2 -14z m-525 -4 c0 -8 -4 -15 -10 -15 -5 0 -10 7
-10 15 0 8 5 15 10 15 6 0 10 -7 10 -15z m480 1 c0 -11 -19 -15 -25 -6 -3 5 1
10 9 10 9 0 16 -2 16 -4z m959 -22 c17 -4 29 -9 27 -13 -6 -10 -146 0 -146 10
0 10 72 12 119 3z m151 -43 c0 -11 5 -23 10 -26 6 -3 10 -10 10 -16 0 -5 -4
-9 -10 -9 -5 0 -10 6 -10 14 0 8 -7 16 -15 20 -8 3 -12 12 -9 21 9 21 24 19
24 -4z m-1940 -128 c0 -68 -5 -66 -14 5 -4 33 -3 52 4 52 6 0 10 -24 10 -57z
m1970 27 c0 -5 -2 -10 -4 -10 -3 0 -8 5 -11 10 -3 6 -1 10 4 10 6 0 11 -4 11
-10z m-2233 -237 c-2 -16 -4 -5 -4 22 0 28 2 40 4 28 2 -13 2 -35 0 -50z m144
-256 c-8 -8 -11 -3 -11 19 1 25 2 27 11 11 8 -14 8 -22 0 -30z m196 21 c-3 -8
-6 -5 -6 6 -1 11 2 17 5 13 3 -3 4 -12 1 -19z m2837 -24 c11 -28 6 -64 -8 -64
-14 0 -30 55 -20 71 8 14 21 11 28 -7z m-1479 -14 c3 -6 -4 -10 -17 -10 -18 0
-20 2 -8 10 19 12 18 12 25 0z m-1468 -72 c-3 -8 -6 -5 -6 6 -1 11 2 17 5 13
3 -3 4 -12 1 -19z m1096 -3 c1 -6 -11 -11 -28 -13 -29 -3 -29 -3 -10 12 21 16
35 17 38 1z m156 -55 c29 -22 49 -40 44 -40 -5 0 -18 7 -29 15 -10 8 -36 19
-56 25 -22 6 -38 17 -38 25 0 24 23 17 79 -25z m-81 -12 c22 -18 48 -38 58
-44 18 -11 17 -13 -8 -23 -15 -6 -36 -8 -45 -5 -48 16 -163 68 -163 75 0 8 63
26 97 28 11 1 39 -14 61 -31z m1789 -20 c-3 -7 -5 -2 -5 12 0 14 2 19 5 13 2
-7 2 -19 0 -25z m-1972 2 c3 -5 2 -10 -4 -10 -5 0 -13 5 -16 10 -3 6 -2 10 4
10 5 0 13 -4 16 -10z m-175 -35 c-7 -8 -17 -15 -22 -15 -6 0 -5 7 2 15 7 8 17
15 22 15 6 0 5 -7 -2 -15z m183 -11 c21 -14 36 -28 34 -30 -8 -8 -71 21 -86
39 -22 27 7 22 52 -9z m77 6 c0 -5 -2 -10 -4 -10 -3 0 -8 5 -11 10 -3 6 -1 10
4 10 6 0 11 -4 11 -10z m1887 -12 c-3 -8 -6 -5 -6 6 -1 11 2 17 5 13 3 -3 4
-12 1 -19z m-1968 -40 c53 -26 61 -33 42 -36 -26 -4 -149 27 -157 40 -8 13 6
28 28 28 11 0 50 -15 87 -32z m-275 -42 c-6 -16 -24 -23 -24 -8 0 10 22 33 27
28 2 -2 1 -11 -3 -20z m76 6 c0 -11 -90 -112 -101 -112 -19 0 -7 23 37 70 44
47 64 60 64 42z m83 -49 c20 -13 37 -29 37 -36 0 -6 -15 -24 -34 -39 -33 -26
-34 -27 -82 -12 -27 8 -53 19 -58 24 -13 13 73 102 88 93 6 -4 28 -17 49 -30z
m732 -78 c37 -36 29 -91 -16 -123 -10 -7 -16 -19 -13 -27 4 -8 2 -15 -4 -15
-5 0 -12 6 -15 13 -2 7 -31 18 -64 25 -78 16 -97 31 -97 75 0 43 2 45 51 62
64 23 130 19 158 -10z m-993 -27 c-7 -7 -12 -8 -12 -2 0 14 12 26 19 19 2 -3
-1 -11 -7 -17z m62 5 c4 -5 33 -15 64 -24 31 -8 57 -20 59 -25 2 -5 -15 -31
-37 -58 -22 -26 -40 -56 -40 -65 0 -22 -17 -47 -26 -38 -4 3 -1 13 6 22 7 8 8
15 2 15 -5 0 -16 -9 -23 -19 -10 -14 -28 -21 -63 -23 -28 -1 -51 2 -53 8 -4
12 49 162 69 193 13 22 29 27 42 14z m1013 -44 c14 -14 6 -39 -12 -39 -15 0
-24 19 -17 38 5 15 15 15 29 1z m1193 -59 c8 -5 11 -12 8 -16 -10 -9 -38 3
-38 16 0 12 10 13 30 0z m-1610 -9 c0 -5 -7 -11 -15 -15 -8 -3 -15 -12 -15
-21 0 -8 -7 -15 -15 -15 -21 0 -19 30 3 46 20 15 42 18 42 5z m-139 -56 c-9
-19 -22 -34 -28 -35 -7 0 -13 -4 -13 -10 0 -16 -40 -12 -46 5 -4 8 -12 15 -20
15 -22 0 -17 17 15 49 27 27 32 29 68 19 l40 -10 -16 -33z m529 45 c0 -5 -2
-10 -4 -10 -3 0 -8 5 -11 10 -3 6 -1 10 4 10 6 0 11 -4 11 -10z m410 -65 c0
-2 -9 -9 -20 -15 -16 -9 -20 -8 -20 5 0 8 9 15 20 15 11 0 20 -2 20 -5z m-590
-25 c0 -5 -4 -10 -10 -10 -5 0 -10 5 -10 10 0 6 5 10 10 10 6 0 10 -4 10 -10z
m-583 -62 c-3 -8 -6 -5 -6 6 -1 11 2 17 5 13 3 -3 4 -12 1 -19z m913 -38 c0
-5 -2 -10 -4 -10 -3 0 -8 5 -11 10 -3 6 -1 10 4 10 6 0 11 -4 11 -10z m-11
-85 c2 -10 -4 -24 -14 -31 -11 -8 -15 -20 -10 -33 5 -16 0 -24 -20 -33 -28
-13 -55 -55 -55 -86 0 -28 -26 -46 -68 -46 -38 -1 -91 -30 -79 -43 11 -11 118
14 182 42 47 21 55 29 50 45 -5 15 0 21 20 26 15 4 31 2 37 -4 12 -12 4 -42
-12 -42 -6 0 -8 5 -5 10 3 6 1 10 -4 10 -6 0 -11 -9 -11 -20 0 -22 -28 -40
-60 -40 -13 0 -24 -8 -27 -20 -3 -11 -14 -20 -24 -20 -11 0 -19 -7 -19 -15 0
-9 -9 -15 -21 -15 -12 0 -23 -8 -26 -20 -3 -11 -9 -20 -14 -20 -5 0 -9 9 -9
20 0 26 -17 26 -25 1 -3 -11 -16 -21 -28 -23 -18 -2 -21 -9 -19 -30 5 -42 -8
-55 -28 -27 -15 19 -21 21 -34 10 -10 -8 -20 -9 -32 -3 -17 9 -64 -6 -64 -20
0 -5 -9 -8 -19 -8 -10 0 -21 -6 -24 -13 -4 -11 -17 -11 -71 3 -65 16 -94 30
-63 30 8 0 28 5 44 11 21 8 24 12 13 19 -8 5 -27 6 -42 3 -20 -4 -29 -1 -34
11 -4 11 -13 14 -31 10 -22 -6 -23 -4 -17 21 7 26 6 27 -27 20 -31 -7 -32 -6
-20 9 12 15 73 46 88 46 3 0 3 -9 0 -20 -6 -22 0 -25 21 -11 20 12 10 46 -15
49 -11 2 -23 12 -26 23 -3 13 -14 19 -31 19 -22 0 -26 4 -26 30 0 17 -5 30
-13 30 -15 0 -42 58 -32 68 4 4 10 2 12 -5 14 -39 56 -82 113 -115 75 -43 114
-47 245 -24 97 17 106 21 172 63 29 18 56 33 62 33 5 0 24 19 42 43 19 23 42
48 51 55 10 7 18 22 18 33 0 25 24 20 29 -6z m-1109 -19 c0 -3 -4 -8 -10 -11
-5 -3 -10 -1 -10 4 0 6 5 11 10 11 6 0 10 -2 10 -4z m1266 -18 c7 -12 -34 -53
-44 -43 -7 6 19 55 29 55 4 0 11 -5 15 -12z m1074 -32 c0 -24 -12 -46 -21 -40
-15 9 -10 54 6 54 8 0 15 -6 15 -14z m-80 -11 c10 -12 10 -15 -4 -15 -9 0 -16
7 -16 15 0 8 2 15 4 15 2 0 9 -7 16 -15z m-1605 -26 c10 -15 -1 -23 -20 -15
-9 3 -13 10 -10 16 8 13 22 13 30 -1z m1537 -47 c-7 -2 -12 -12 -12 -22 0 -10
-7 -20 -15 -24 -23 -8 -18 -29 5 -23 24 6 38 -11 16 -19 -9 -4 -23 -1 -31 6
-18 15 -35 5 -35 -20 0 -25 -12 -31 -63 -32 -23 0 -51 -7 -62 -14 -11 -8 -28
-14 -38 -14 -25 0 -109 -44 -129 -69 -18 -21 -48 -29 -48 -12 0 10 176 115
264 158 33 15 80 47 105 70 25 22 48 36 50 30 2 -6 -1 -13 -7 -15z m68 3 c0
-8 -4 -15 -10 -15 -5 0 -10 7 -10 15 0 8 5 15 10 15 6 0 10 -7 10 -15z m-2010
-25 c0 -5 -2 -10 -4 -10 -3 0 -8 5 -11 10 -3 6 -1 10 4 10 6 0 11 -4 11 -10z
m1570 -40 c0 -5 -5 -10 -11 -10 -5 0 -7 5 -4 10 3 6 8 10 11 10 2 0 4 -4 4
-10z m440 -25 c0 -28 -17 -42 -33 -26 -8 8 -7 17 3 35 15 30 30 25 30 -9z
m-1924 -10 c-21 -16 -32 -13 -21 4 3 6 14 11 23 11 15 -1 15 -2 -2 -15z m810
-22 c-11 -11 -19 6 -11 24 8 17 8 17 12 0 3 -10 2 -21 -1 -24z m898 -49 c8
-22 9 -22 -19 -16 -20 3 -23 7 -14 18 15 18 25 18 33 -2z m207 0 c11 -14 10
-15 -11 -12 -13 1 -25 9 -28 16 -5 17 23 15 39 -4z m-78 -48 c-3 -38 -7 -41
-43 -26 -51 21 -37 61 20 57 21 -2 25 -7 23 -31z m117 19 c0 -8 -4 -15 -10
-15 -5 0 -10 7 -10 15 0 8 5 15 10 15 6 0 10 -7 10 -15z m-590 -45 c0 -5 -5
-10 -11 -10 -5 0 -7 5 -4 10 3 6 8 10 11 10 2 0 4 -4 4 -10z m300 0 c-8 -5
-19 -10 -25 -10 -5 0 -3 5 5 10 8 5 20 10 25 10 6 0 3 -5 -5 -10z m84 -9 c3
-4 3 -11 0 -14 -8 -8 -34 3 -34 14 0 11 27 12 34 0z m-330 -23 c-7 -11 -67
-38 -84 -38 -19 0 0 19 38 39 37 19 58 19 46 -1z m-124 -8 c0 -5 -7 -10 -16
-10 -8 0 -12 5 -9 10 3 6 10 10 16 10 5 0 9 -4 9 -10z m250 -20 c0 -5 -5 -10
-11 -10 -5 0 -7 5 -4 10 3 6 8 10 11 10 2 0 4 -4 4 -10z m-50 -29 c0 -7 -75
-41 -93 -41 -20 0 -2 20 31 33 43 18 62 21 62 8z m-194 -37 c-25 -18 -76 -19
-76 0 0 9 14 14 48 14 43 1 45 0 28 -14z m-141 -64 c-3 -5 -12 -7 -20 -3 -21
7 -19 13 6 13 11 0 18 -4 14 -10z m1052 -282 c-1 -141 -3 -255 -4 -254 -1 1
-9 68 -18 149 -12 113 -12 153 -4 170 9 16 9 22 0 25 -14 5 -15 32 0 32 6 0
10 16 9 38 -4 80 0 128 10 111 5 -8 8 -129 7 -271z m-217 -94 c-8 -27 -8 -26
-9 16 0 32 2 40 9 29 5 -9 6 -28 0 -45z m185 -123 c3 -5 1 -12 -5 -16 -5 -3
-10 1 -10 9 0 18 6 21 15 7z m65 -560 c12 -149 12 -143 1 -137 -8 5 -17 90
-26 246 -8 124 13 34 25 -109z m-133 107 c-3 -7 -5 -2 -5 12 0 14 2 19 5 13 2
-7 2 -19 0 -25z m-11 -146 c-11 -10 -14 3 -7 38 l6 35 3 -33 c2 -19 1 -36 -2
-40z m-9 -109 c-3 -10 -5 -4 -5 12 0 17 2 24 5 18 2 -7 2 -21 0 -30z"/>
<path d="M1914 1665 c-16 -12 -17 -14 -2 -15 23 0 48 11 48 21 0 14 -24 11
-46 -6z"/>
<path d="M1538 1557 c-46 -13 -49 -27 -7 -27 34 0 69 15 69 30 0 12 -12 11
-62 -3z"/>
<path d="M1765 1560 c-18 -8 -17 -9 7 -9 15 -1 30 4 33 9 7 12 -12 12 -40 0z"/>
<path d="M1575 1430 c3 -5 8 -10 11 -10 2 0 4 5 4 10 0 6 -5 10 -11 10 -5 0
-7 -4 -4 -10z"/>
<path d="M930 4185 c0 -114 112 -638 135 -633 6 2 9 13 7 26 -1 12 2 22 8 22
5 0 10 -8 10 -17 0 -10 5 -25 10 -33 7 -12 12 -12 22 -2 8 8 9 15 3 20 -14 10
-39 74 -59 152 -40 161 -94 399 -101 443 -4 31 -11 47 -21 47 -8 0 -14 -10
-14 -25z"/>
<path d="M711 3694 c-18 -19 -22 -31 -17 -57 4 -17 11 -81 16 -141 5 -60 11
-111 14 -113 9 -10 17 108 14 219 l-3 117 -24 -25z"/>
<path d="M1907 2723 c-4 -3 -7 -15 -7 -25 0 -12 -7 -18 -24 -18 -14 0 -28 -4
-31 -10 -7 -12 38 -14 49 -2 4 4 11 7 14 8 31 3 91 17 109 24 14 6 33 6 46 1
13 -5 48 -6 78 -1 48 7 50 8 19 11 -19 1 -47 3 -62 3 -14 1 -30 4 -34 9 -11
11 -82 9 -105 -4 -14 -7 -24 -7 -33 0 -7 6 -16 8 -19 4z"/>
<path d="M290 2549 c0 -5 5 -7 10 -4 6 3 10 8 10 11 0 2 -4 4 -10 4 -5 0 -10
-5 -10 -11z"/>
<path d="M100 2500 c0 -5 5 -10 11 -10 5 0 7 5 4 10 -3 6 -8 10 -11 10 -2 0
-4 -4 -4 -10z"/>
<path d="M827 2173 c-15 -24 -36 -94 -27 -88 15 9 42 73 38 87 -3 9 -6 9 -11
1z"/>
<path d="M2315 1698 c-26 -51 -54 -101 -63 -111 -24 -27 -6 -32 20 -4 21 22
108 185 108 201 0 3 -4 6 -9 6 -5 0 -30 -42 -56 -92z"/>
<path d="M1706 958 c-18 -25 -21 -48 -7 -48 10 0 36 58 28 66 -3 3 -12 -5 -21
-18z"/>
<path d="M3131 594 c0 -11 3 -14 6 -6 3 7 2 16 -1 19 -3 4 -6 -2 -5 -13z"/>
<path d="M3090 350 c0 -5 5 -10 10 -10 6 0 10 5 10 10 0 6 -4 10 -10 10 -5 0
-10 -4 -10 -10z"/>
</g>
</svg>
